<svg width="24" height="24" viewBox="0 0 24 24" fill="none" xmlns="http://www.w3.org/2000/svg">
<path fill-rule="evenodd" clip-rule="evenodd" d="M11.925 0C12.5463 8.9407e-08 13.05 0.50368 13.05 1.125V10.8H22.725C23.3463 10.8 23.85 11.3037 23.85 11.925C23.85 12.5463 23.3463 13.05 22.725 13.05H13.05V22.725C13.05 23.3463 12.5463 23.85 11.925 23.85C11.3037 23.85 10.8 23.3463 10.8 22.725L10.8 13.05H1.125C0.50368 13.05 0 12.5463 0 11.925C0 11.3037 0.50368 10.8 1.125 10.8H10.8L10.8 1.125C10.8 0.50368 11.3037 -8.9407e-08 11.925 0Z" fill="#4C79FF"/>
</svg>
