<svg width="36" height="36" viewBox="0 0 36 36" fill="none" xmlns="http://www.w3.org/2000/svg">
<path fill-rule="evenodd" clip-rule="evenodd" d="M7.39206 10H9.75758C10.8621 10 11.7576 10.8954 11.7576 12C11.7576 13.1046 10.8621 14 9.75758 14H2C0.89543 14 0 13.1046 0 12V4C0 2.89543 0.89543 2 2 2C3.10457 2 4 2.89543 4 4V7.87722C7.14045 3.14057 12.443 0 18.4848 0C28.2158 0 36 8.11733 36 18C36 27.8827 28.2158 36 18.4848 36C10.6799 36 4.1188 30.7673 1.83676 23.6073C1.50133 22.5549 2.08256 21.4299 3.13497 21.0944C4.18737 20.759 5.31244 21.3402 5.64786 22.3927C7.43774 28.0084 12.5386 32 18.4848 32C25.8915 32 32 25.7904 32 18C32 10.2096 25.8915 4 18.4848 4C13.9126 4 9.84626 6.35515 7.39206 10Z" fill="#969DA8"/>
</svg>
