<svg width="36" height="24" viewBox="0 0 36 24" fill="none" xmlns="http://www.w3.org/2000/svg">
<path d="M2 20C3.10457 20 4 20.8954 4 22C4 23.1046 3.10457 24 2 24C0.895431 24 9.01972e-07 23.1046 0 22C0 20.8954 0.895431 20 2 20ZM34 20C35.1046 20 36 20.8954 36 22C36 23.1046 35.1046 24 34 24H10C8.89543 24 8 23.1046 8 22C8 20.8954 8.89543 20 10 20H34ZM2 10C3.10457 10 4 10.8954 4 12C4 13.1046 3.10457 14 2 14C0.895431 14 3.86559e-07 13.1046 0 12C0 10.8954 0.895431 10 2 10ZM34 10C35.1046 10 36 10.8954 36 12C36 13.1046 35.1046 14 34 14H10C8.89543 14 8 13.1046 8 12C8 10.8954 8.89543 10 10 10H34ZM2 0C3.10457 0 4 0.895431 4 2C4 3.10457 3.10457 4 2 4C0.895431 4 0 3.10457 0 2C1.28851e-07 0.895431 0.895431 1.28853e-07 2 0ZM34 0C35.1046 0 36 0.89543 36 2C36 3.10457 35.1046 4 34 4H10C8.89543 4 8 3.10457 8 2C8 0.895431 8.89543 5.15404e-07 10 0H34Z" fill="#969DA8"/>
</svg>
